<?xml version="1.0" encoding="utf-8"?>
<!-- Generator: Adobe Illustrator 28.0.0, SVG Export Plug-In . SVG Version: 6.00 Build 0)  -->
<svg version="1.1" id="Capa_1" xmlns="http://www.w3.org/2000/svg" xmlns:xlink="http://www.w3.org/1999/xlink" x="0px" y="0px"
	 viewBox="0 0 64 64" style="enable-background:new 0 0 64 64;" xml:space="preserve">
<style type="text/css">
	.st0{fill:#A5A3A5;}
</style>
<g>
	<path class="st0" d="M47.3,57c-10.2,0-20.4,0-30.5,0c0,0-0.1-0.1-0.1-0.1c-2.4-0.6-3.7-2.2-3.7-4.6c0-12.5,0-25,0-37.5
		c0-0.5,0-0.9,0.1-1.4c0.9-3.2,3.5-3.8,6.2-3.4c0,0.5,0,1.1,0,1.6c0,0.4,0,0.8,0.1,1.2c0.4,1.8,2,3,3.9,3c5.7,0,11.4,0,17.2,0
		c2.6,0,4.2-1.6,4.2-4.2c0-0.5,0-1.1,0-1.6c0.7,0,1.3,0,1.9,0c2.5,0,4.4,1.9,4.4,4.4c0,12.7,0,25.4,0,38c0,2.4-1.3,4-3.7,4.5
		C47.3,56.9,47.3,57,47.3,57z M37.7,47c1.7,0,3.4,0,5.1,0c1,0,1.6-0.6,1.6-1.4c0-0.9-0.7-1.5-1.6-1.5c-3.4,0-6.7,0-10.1,0
		c-1,0-1.6,0.6-1.6,1.4c0,0.9,0.7,1.5,1.6,1.5C34.4,47,36,47,37.7,47z M37.7,27.5c1.7,0,3.4,0,5,0c1,0,1.6-0.6,1.6-1.4
		c0-0.9-0.7-1.5-1.6-1.5c-3.4,0-6.7,0-10.1,0c-1,0-1.6,0.6-1.6,1.4c0,0.9,0.7,1.5,1.6,1.5C34.4,27.5,36,27.5,37.7,27.5z M37.7,37.3
		c1.7,0,3.4,0,5,0c1,0,1.7-0.6,1.7-1.5c0-0.9-0.7-1.5-1.7-1.5c-3.3,0-6.7,0-10,0c-1,0-1.7,0.6-1.7,1.5c0,0.9,0.7,1.5,1.7,1.5
		C34.4,37.3,36,37.3,37.7,37.3z M22.8,36c-0.3-0.3-0.5-0.6-0.8-0.8c-0.6-0.6-1.5-0.6-2.1,0c-0.6,0.6-0.6,1.4,0,2.1
		c0.6,0.6,1.2,1.2,1.8,1.8c0.6,0.6,1.5,0.6,2.1,0c1.5-1.4,2.9-2.9,4.4-4.4c0.4-0.4,0.5-0.8,0.4-1.3c-0.1-0.6-0.4-0.9-1-1.1
		c-0.6-0.2-1.1-0.1-1.5,0.4C25.1,33.7,24,34.8,22.8,36z M22.8,45.7c-0.3-0.3-0.5-0.6-0.8-0.9c-0.6-0.5-1.5-0.5-2,0
		c-0.5,0.5-0.6,1.4,0,2c0.6,0.7,1.3,1.3,2,2c0.6,0.5,1.4,0.5,1.9,0c1.5-1.5,3.1-3,4.6-4.6c0.4-0.4,0.5-1,0.3-1.5
		c-0.2-0.5-0.6-0.8-1.2-0.9c-0.5,0-0.9,0.2-1.3,0.5C25.1,43.5,24,44.6,22.8,45.7z M22.8,25.5c-0.3-0.3-0.5-0.6-0.7-0.8
		c-0.6-0.6-1.5-0.6-2.1,0c-0.6,0.6-0.6,1.5,0,2.1c0.6,0.6,1.2,1.2,1.8,1.8c0.7,0.6,1.5,0.7,2.1,0c1.5-1.4,2.9-2.9,4.4-4.4
		c0.4-0.4,0.5-0.8,0.4-1.3c-0.1-0.6-0.5-0.9-1-1.1c-0.6-0.2-1.1,0-1.5,0.4C25.1,23.2,24,24.3,22.8,25.5z"/>
	<path class="st0" d="M32,12.9c-2.8,0-5.7,0-8.5,0c-0.9,0-1.3-0.3-1.3-1.2c0-1.1,0-2.3,0-3.4c0-0.9,0.4-1.2,1.2-1.2
		c5.7,0,11.4,0,17.1,0c0.9,0,1.2,0.3,1.2,1.2c0,1.2,0,2.3,0,3.5c0,0.8-0.3,1.2-1.2,1.2C37.7,12.9,34.9,12.9,32,12.9z"/>
</g>
</svg>
